#!OML:ASF F:\VICON\USERDATA\INSTALL\rory3\rory3.ASF
:FULLY-SPECIFIED
:DEGREES
18
root 0.19387667214669202 18.17368398775465 -17.479188048649224 -3.8588014922072897 1.257854423431568 -6.4443892625437
lfemur -9.944838535029692 0.40008852103306003 -12.74801010683817
ltibia 67.12358068427307
lfoot 14.124177819565897 -20.205272678459725
ltoes -1.084938078899775
rfemur -12.488601078567626 2.6400785192710554 32.724290207912254
rtibia 26.4517059950617
rfoot -7.97499989323478 -7.972591116152012
rtoes 6.706154014491934
lowerback 11.42499564473025 -0.5205311419842383 2.363676032663479
upperback -0.00931534839701502 -0.13181642841563257 3.7229047157815107
thorax -6.43133446411615 -0.07773153915364991 2.61376527181894
lowerneck -14.94111941750733 -3.1256771192327633 -1.8948913395080909
upperneck 21.528098740907126 -3.835360337559603 -0.23750859198085994
head 9.274039445250558 -1.9739560582933922 -0.23786102195311087
lclavicle 2.9911137972303177e-16 5.531458010562508e-17
lhumerus -29.895500715735228 5.373417392759973 84.0447861190546
lradius 27.86779570810082
lwrist 7.060850861729201
lhand -29.550400051819427 17.790202176005316
lfingers 7.125020000000001
lthumb -2.883300050978523 47.75050219149574
rclavicle 2.9911137972303177e-16 5.531458010562508e-17
rhumerus -35.96839158327771 -25.74619040697631 -72.96130947897345
rradius 20.879715327315743
rwrist 9.172416072594359
rhand -14.063631050407803 24.308192644853435
rfingers 7.125020000000001
rthumb 12.067768934841762 -5.323808112183286
19
root 0.18712285913791615 18.149485436608042 -16.871788057282004 -3.735302371894475 1.4595836906005015 -6.2589198525696785
lfemur -15.631794779833509 0.30762206912139023 -12.877710434961443
ltibia 71.0979771826241
lfoot 6.817705517105938 -14.178281985822128
ltoes -3.2092652249263063
rfemur -10.899602208479712 3.38649625448873 32.92539015777573
rtibia 27.435605753010506
rfoot -9.749417797748716 -9.433067141440137
rtoes 6.759434175615375
lowerback 11.565694081348525 -0.3161165269700371 2.435705890085046
upperback 0.41718435466272946 0.11397855687658831 3.3534295349546435
thorax -6.06289184202036 0.03552969540641257 2.1349170856598185
lowerneck -16.006506223751717 -3.323862259643538 -1.6702153562020208
upperneck 21.354700875326838 -4.15416603459749 -0.1883770568633374
head 9.409245364303198 -2.093621533219032 -0.31568870650854014
lclavicle 2.991114283124891e-16 5.5314525425828107e-17
lhumerus -29.879500716668222 6.680935071585116 83.49298864414722
lradius 27.10419720378606
lwrist 8.180727769555096
lhand -27.288711467257517 20.02229782571679
lfingers 7.125020000000001
lthumb -0.6988894959645728 50.000897809807675
rclavicle 2.991114283124891e-16 5.5314525425828107e-17
rhumerus -32.979196368938396 -25.39359103631946 -74.69920522225677
rradius 21.56751379169677
rwrist 8.491157694987464
rhand -14.246129526302589 18.927114963255995
rfingers 7.125020000000001
rthumb 11.89177063362352 -10.71518587114595
20
root 0.19404566199766748 18.17528388785531 -16.240689680156294 -3.3552950060123976 0.5131190997833714 -6.133000296291096
lfemur -20.311891650510386 0.9107683541763958 -13.066109626397912
ltibia 71.7452785120131
lfoot 0.12246911677354166 -9.722719270703983
ltoes -10.183497351426702
rfemur -9.00312345259705 4.617642373100336 33.12898999215293
rtibia 27.691006119654197
rfoot -12.172195063306237 -9.958905687969267
rtoes 11.712287710444492
lowerback 11.22829783341075 0.23949779023645199 2.6767953005516896
upperback 0.554447967908487 0.8373525564682721 2.963164682978116
thorax -5.731618481426782 0.38031868620210746 1.4657296339294856
lowerneck -15.722709744515077 -3.413880057817728 -1.8148227725609316
upperneck 21.114903824943884 -4.367903188359947 0.3359285792872224
head 9.29123892709448 -2.147389497238298 -0.13115114064975208
lclavicle 2.9911139772621517e-16 5.531456215514378e-17
lhumerus -30.472499705508188 6.879594887836016 83.0881903602608
lradius 26.096099206957994
lwrist 9.434544203948066
lhand -26.93021328096928 20.637696667797854
lfingers 7.125020000000001
lthumb -0.3527343578531834 50.6170965822042
rclavicle 2.9911139772621517e-16 5.531456215514378e-17
rhumerus -30.367500480167106 -23.525894258977416 -76.76260022147854
rradius 22.490211851398215
rwrist 6.833772187833295
rhand -15.51601945358422 17.536420765714187
rfingers 7.125020000000001
rthumb 10.667080516012314 -12.172779865935096
21
root 0.5226777921126028 18.06213162702602 7.464205937190597 -2.833495319568628 -0.8406827348798623 -5.34296171111918
lfemur -18.945207670213236 2.6430894244801637 -13.788289991356221
ltibia 68.51117306466526
lfoot -5.031963772867062 -5.75589180904082
ltoes -7.043330375195105
rfemur -5.09500895525529 3.9477630456695145 34.23975151756687
rtibia 28.675338316228007
rfoot -14.742602966180069 -9.910279153705245
rtoes 10.34414864243385
lowerback 11.306653028081083 0.7399133923862999 4.031779625667331
upperback 0.11150216081468206 1.855481302141002 2.2011822841264084
thorax -5.992487314966563 0.6432722337588547 -0.21391931880435533
lowerneck -16.186020248064274 -3.329695561870264 -1.6628675186437554
upperneck 21.6419652343319 -4.616506528222084 0.2680974475100537
head 9.511516091114096 -2.331581550723798 -0.1746294481064849
lclavicle 2.9992280859047925e-16 5.589721756248672e-17
lhumerus -32.46726846986414 3.9737939980920784 83.04339780539723
lradius 25.383995225498218
lwrist 8.55968074377114
lhand -28.379775629408403 21.124181018971967
lfingers 7.125020000000001
lthumb -2.003763075004384 50.43688664227148
rclavicle 2.9808684050983884e-16 5.457884508789948e-17
rhumerus -29.52569418919352 -18.37522082630687 -78.74648970317735
rradius 27.653720973902285
rwrist 2.748254118442798
rhand -17.91384183039058 21.752172631892336
rfingers 7.125020000000001
rthumb 8.491804543665559 -8.158388462787274
22
root 0.5328428345704423 18.02224342590052 7.217674078568487 -2.4586531696534575 -1.426514141208448 -5.801227470702031
lfemur -23.12080900594684 3.065981552281375 -13.908172896672266
ltibia 63.816577651770714
lfoot -9.035430362158102 -1.0089094859087326
ltoes -8.466831677141116
rfemur -3.093080714668483 3.7947303352292114 35.10360024231433
rtibia 29.970932744683694
rfoot -16.604607517679998 -9.600335272927921
rtoes 8.016939516229797
lowerback 11.462531941299384 1.0275229902769845 4.600907879427094
upperback -0.026813893558712748 2.323797643850069 2.228556015541967
thorax -6.078440708176645 0.8987718914126236 -0.5512995847119153
lowerneck -15.973607510683662 -3.405537615304393 -1.707436264164841
upperneck 21.674648685306416 -4.899868516522754 0.2841538282738503
head 9.495892069250923 -2.3871819295514825 -0.09606826530454254
lclavicle 2.99922083471498e-16 5.589669686884518e-17
lhumerus -33.38659975030991 4.685452009781276 82.73104209495605
lradius 24.4133471624995
lwrist 7.970777844892718
lhand -29.594136236096013 18.465473753728773
lfingers 7.125020000000001
lthumb -3.0247210313212354 48.360597039982444
rclavicle 2.9808637260591477e-16 5.457850909531827e-17
rhumerus -27.957904574400374 -15.783002514439001 -79.82500877224666
rradius 30.5689731071069
rwrist 1.1071151758726914
rhand -18.114194788360265 22.491363913816727
rfingers 7.125020000000001
rthumb 8.11331873212715 -7.212622667303677
23
root 0.5480506338618898 17.980230896455993 7.22762657831342 -1.984658943686932 -1.9671303794441584 -6.3238879245053194
lfemur -25.86994083028773 2.8407156124457753 -13.832577744474836
ltibia 57.14888968527016
lfoot -11.620178004168068 3.7340732911614714
ltoes -10.214589914919182
rfemur -1.3531718271085076 3.812854950364181 35.82928145425441
rtibia 31.26200568383648
rfoot -17.920376992378042 -9.459488299014756
rtoes 5.950892892624445
lowerback 11.55544566927323 1.3343515766361376 5.391130699838168
upperback -0.19171130646926107 2.8636292268742727 2.2412336743631283
thorax -6.17420196710227 1.06579483633644 -1.2646892775788838
lowerneck -16.07791770999442 -3.4483399863444357 -1.701801038528183
upperneck 21.616412226027588 -5.146376956735683 0.5137987177227605
head 9.467574111539417 -2.407211946147228 -0.030444725338937717
lclavicle 2.999225772696208e-16 5.589705145553982e-17
lhumerus -34.46977428979216 5.8575285520592075 82.03530015046361
lradius 23.169223365154046
lwrist 7.398514107686848
lhand -30.0205397760789 17.914423938672403
lfingers 7.125020000000001
lthumb -3.6670603695541013 46.98176339931228
rclavicle 2.98086143696989e-16 5.457834472033257e-17
rhumerus -26.136580221505348 -13.92252384518328 -80.28813843370143
rradius 32.00359052861346
rwrist 0.2498189090780425
rhand -18.129631927352893 22.70749756508522
rfingers 7.125020000000001
rthumb 7.924948500883448 -7.2805918472607445
24
root 0.5624796626212403 17.941463502496102 6.927967476378409 -1.4857747442331057 -2.4890840172781483 -6.8376554795639635
lfemur -26.972188134968164 1.8352363191373544 -13.45568004590716
ltibia 48.262241462763704
lfoot -11.494668435583758 5.4304747406823575
ltoes -9.60511091763111
rfemur 0.5382315108748728 3.99410196141337 36.29750790959159
rtibia 31.91070997050609
rfoot -18.178144001065405 -9.45748631832839
rtoes 4.156869864018603
lowerback 11.36990471596602 1.5825832730110907 6.112088801381218
upperback -0.24917609274970534 3.3677838819389567 2.2446799648899005
thorax -6.1657546892735375 1.204235807035069 -1.668377509658353
lowerneck -16.025558723172942 -3.5071966746175627 -1.7539219349278374
upperneck 21.6088155683625 -5.133740000834422 0.7164614782319568
head 9.492114589435488 -2.3461628370463377 0.04516365928615587
lclavicle 2.999229927369004e-16 5.589734979440058e-17
lhumerus -35.16316394660281 7.130727537360997 81.35118847764045
lradius 21.78764428728952
lwrist 6.68299321664432
lhand -29.9865449146519 17.584686779925395
lfingers 7.125020000000001
lthumb -3.6392191354274797 46.81035905143388
rclavicle 2.980859867591072e-16 5.457823202633451e-17
rhumerus -24.081300319152668 -12.328368843693054 -80.47068552041247
rradius 32.61556904525023
rwrist 0.10338795767083298
rhand -18.51548988397435 22.76090117892935
rfingers 7.125020000000001
rthumb 7.665684776043181 -7.259107185579933
25
root 0.5900481078515926 17.909187141792714 7.065219519040507 -1.0423790174800218 -2.806949357102437 -7.024933485037641
lfemur -26.886402912234466 -0.05017584609533143 -12.864640538746363
ltibia 38.44833735522416
lfoot -10.368715191625606 5.048068156847304
ltoes -9.43508426391163
rfemur 2.958040632132347 4.268910380933166 36.69879691987723
rtibia 32.14845024254277
rfoot -17.478604909655868 -9.365297406079458
rtoes 2.012688829632202
lowerback 10.989705669788385 1.7773013761595047 6.382344126239454
upperback -0.200355826534033 3.761903305708924 2.2226990894562264
thorax -6.090821825904302 1.3475883924345848 -1.6968541208014323
lowerneck -15.895217225865833 -3.5685885186171675 -1.876976124420315
upperneck 21.617302566030833 -5.141364682466989 0.764356031072173
head 9.455082382224482 -2.3667511083951798 0.016038625475262275
lclavicle 2.999232147662275e-16 5.589750922928214e-17
lhumerus -35.348756065732886 7.778357677367591 81.06295257988941
lradius 20.56235052717708
lwrist 6.013433123400624
lhand -29.812822965310907 18.12678636980739
lfingers 7.125020000000001
lthumb -3.5927232477213646 46.80685781846128
rclavicle 2.980859548936801e-16 5.457820914439964e-17
rhumerus -22.297794606052094 -11.476258292373743 -80.48885865318849
rradius 32.86369888117617
rwrist 0.6175899788684482
rhand -18.636950636909987 22.792793932491115
rfingers 7.125020000000001
rthumb 7.433285161098826 -7.5675935421069465
